<svg width="120" height="120" viewBox="0 0 120 120" fill="none" xmlns="http://www.w3.org/2000/svg">
<path opacity="0.35" d="M90 105H30C21.715 105 15 98.2853 15 90V30C15 21.715 21.715 15 30 15H90C98.2853 15 105 21.715 105 30V90C105 98.2853 98.2853 105 90 105Z" fill="#ADBAFF"/>
<path d="M55 79.9997C53.72 79.9997 52.44 79.5099 51.465 78.5347L36.465 63.535C34.51 61.58 34.51 58.42 36.465 56.465C38.42 54.51 41.58 54.51 43.535 56.465L55 67.93L101.465 21.465C103.42 19.51 106.58 19.51 108.535 21.465C110.49 23.42 110.49 26.58 108.535 28.535L58.535 78.5347C57.56 79.5099 56.28 79.9997 55 79.9997Z" fill="#7BB2FF"/>
</svg>
