<svg width="48" height="48" viewBox="0 0 48 48" fill="none" xmlns="http://www.w3.org/2000/svg">
<path opacity="0.35" d="M36 42H12C8.686 42 6 39.314 6 36V12C6 8.686 8.686 6 12 6H36C39.314 6 42 8.686 42 12V36C42 39.314 39.314 42 36 42Z" fill="#69A7FF"/>
<path d="M22 32C21.488 32 20.976 31.804 20.586 31.414L14.586 25.414C13.804 24.632 13.804 23.368 14.586 22.586C15.368 21.804 16.632 21.804 17.414 22.586L22 27.172L40.586 8.586C41.368 7.804 42.632 7.804 43.414 8.586C44.196 9.368 44.196 10.632 43.414 11.414L23.414 31.414C23.024 31.804 22.512 32 22 32Z" fill="#70ABFF"/>
</svg>
